<?xml version="1.0" encoding="UTF-8"?>
<svg
  version="1.1"
  viewBox="0 0 700 700"
  xmlns="http://www.w3.org/2000/svg"
>
  <g transform="translate(0 53.417)">
    <path
      d="m351.53-40.331c-58.369-0.83544-117.15 14.781-168.21 48.76-22.493 14.968-43.507 32.237-61.281 52.666-21.233 24.404-39.039 51.962-51.268 82-41.092 100.94-20.373 217.85 46.947 302 20.39 25.486 46.079 46.336 73.602 63.682 6.6591 4.1966 21.994 17.904 29.785 11.002 6.601-5.8476 12.023-22.577 5.0703-29.471-12.882-12.774-32.586-21.086-46.855-32.828-30.853-25.39-57.22-59.221-72.396-96.385-5.8036-14.212-10.743-28.941-13.803-44-1.0185-5.0128-3.7042-12.558 1.4277-16.242 5.7799-4.1491 14.558 4.9325 18.771 8.2422 15.678 12.314 32.052 24.3 49 34.809 30.533 18.932 61.808 35.504 96 46.859 7.888 2.6197 26.975 11.428 34.959 8.1309 6.8848-2.8433 12.379-15.808 16.373-21.799 12.931-19.396 30.446-39.626 39.668-61 15.392 18.059 27.683 40.128 40.656 60 4.1238 6.3166 9.3736 19.604 16.438 22.883 3.2334 1.501 7.6906-0.4414 10.906-1.2559 9.7767-2.4762 19.493-5.583 29-8.9356 40.727-14.361 78.883-35.784 114-60.832 10.097-7.2019 20.073-14.533 30-21.963 3.246-2.4292 8.5781-7.467 12.994-6.7598 8.2498 1.3213 5.2817 11.565 4.2051 16.863-3.5081 17.265-9.161 33.998-16.508 50-16.358 35.63-41.618 67.546-71.691 92.564-9.1768 7.6344-18.913 14.994-29 21.383-5.5249 3.4993-13.122 6.2507-17.348 11.379-5.8673 7.1198 0.72096 25.683 8.3906 29.643 6.4005 3.304 14.885-4.2335 19.957-7.3926 17.044-10.616 34.225-21.978 49-35.664 59.048-54.697 100-131.01 100-212.91 0-61.076-13.021-121.75-48.029-173-57.339-83.943-153.48-131.03-250.76-132.43zm2.1914 32.824c17.692 0.15451 35.99 3.1939 52.596 6.9512 57.854 13.09 112.35 43.426 150.38 89.65 19.537 23.741 36.645 51.199 45.188 81 1.4192 4.9507 10.403 27.334 2.3672 28.914-3.7045 0.7284-7.3306-3.0369-9.9394-5.1133-7.0799-5.6349-13.934-11.546-21-17.199-27.102-21.682-56.1-42.393-87-58.342-47.46-24.496-101.98-41.234-156-36.09-41.448 3.9473-79.967 17.55-117 36.078-32.197 16.109-62.393 37.671-90 60.672-6.7079 5.5886-13.238 11.413-20 16.932-2.2076 1.8017-5.5432 4.6841-8.5664 2.916-6.0169-3.519 0.32679-17.954 1.707-22.768 6.533-22.786 16.519-44.395 29.887-64 32.903-48.256 79.547-84.849 134.97-103.92 24.382-8.3894 49.585-11.796 75-14.795 5.6777-0.66992 11.507-0.93822 17.404-0.88672z"
      style="fill:#13889b"
    />
    <path
      d="m314.32 165.39c35.937-4.508 42.559 52.672 7 56.536-37.225 4.045-43.745-51.927-7-56.536"
      style="fill:#ffffff"
    />
    <path
      d="m466.32 148.1c37.462 21.886 72.16 44.668 106 72 7.8806 6.365 15.477 13.057 23 19.831 2.4992 2.2503 7.7932 5.3307 7.7932 9.169 0 3.4719-4.4244 6.2754-6.7932 8.1952-7.8049 6.3254-16.072 12.062-24 18.229-33.447 26.018-70.684 52.207-110 68.576 6.8854-10.411 14.991-19.724 20.63-31 18.022-36.039 20.201-76.682 8.946-115-3.4954-11.9-9.1672-23.623-15.921-34-2.8718-4.4128-9.8291-10.713-9.6551-16"
      style="fill:#ffffff"
    />
    <path
      d="m236.32 147.1c-7.4846 11.326-15.985 21.538-21.691 34-17.122 37.394-17.311 81.775-2.8835 120 6.1573 16.313 17.824 27.979 25.575 43-54.018-22.162-96.515-61.531-144-94 10.037-13.955 27.636-25.266 41-36.001 30.589-24.57 64.64-53.403 102-66.999"
      style="fill:#ffffff"
    />
    <g transform="translate(-4.3e-4,5.2e-4)">
      <path
        d="m351.53-40.331c-58.369-0.83544-117.15 14.781-168.21 48.76-22.493 14.968-43.507 32.237-61.281 52.666-21.233 24.404-39.039 51.962-51.268 82-41.092 100.94-20.373 217.85 46.947 302 20.39 25.486 46.079 46.336 73.602 63.682 6.6591 4.1966 21.994 17.904 29.785 11.002 6.601-5.8476 12.023-22.577 5.0703-29.471-12.882-12.774-32.586-21.086-46.855-32.828-30.853-25.39-57.22-59.221-72.396-96.385-5.8036-14.212-10.743-28.941-13.803-44-1.0185-5.0128-3.7042-12.558 1.4277-16.242 5.7799-4.1491 14.558 4.9325 18.771 8.2422 15.678 12.314 32.052 24.3 49 34.809 30.533 18.932 61.808 35.504 96 46.859 7.888 2.6197 26.975 11.428 34.959 8.1309 6.8848-2.8433 12.379-15.808 16.373-21.799 12.931-19.396 30.446-39.626 39.668-61 15.392 18.059 27.683 40.128 40.656 60 4.1238 6.3166 9.3736 19.604 16.438 22.883 3.2334 1.501 7.6906-0.4414 10.906-1.2559 9.7767-2.4762 19.493-5.583 29-8.9356 40.727-14.361 78.883-35.784 114-60.832 10.097-7.2019 20.073-14.533 30-21.963 3.246-2.4292 8.5781-7.467 12.994-6.7598 8.2498 1.3213 5.2817 11.565 4.2051 16.863-3.5081 17.265-9.161 33.998-16.508 50-16.358 35.63-41.618 67.546-71.691 92.564-9.1768 7.6344-18.913 14.994-29 21.383-5.5249 3.4993-13.122 6.2507-17.348 11.379-5.8673 7.1198 0.72096 25.683 8.3906 29.643 6.4005 3.304 14.885-4.2335 19.957-7.3926 17.044-10.616 34.225-21.978 49-35.664 59.048-54.697 100-131.01 100-212.91 0-61.076-13.021-121.75-48.029-173-57.339-83.943-153.48-131.03-250.76-132.43zm2.1914 32.824c17.692 0.15451 35.99 3.1939 52.596 6.9512 57.854 13.09 112.35 43.426 150.38 89.65 19.537 23.741 36.645 51.199 45.188 81 1.4192 4.9507 10.403 27.334 2.3672 28.914-3.7045 0.7284-7.3306-3.0369-9.9394-5.1133-7.0799-5.6349-13.934-11.546-21-17.199-27.102-21.682-56.1-42.393-87-58.342-47.46-24.496-101.98-41.234-156-36.09-41.448 3.9473-79.967 17.55-117 36.078-32.197 16.109-62.393 37.671-90 60.672-6.7079 5.5886-13.238 11.413-20 16.932-2.2076 1.8017-5.5432 4.6841-8.5664 2.916-6.0169-3.519 0.32679-17.954 1.707-22.768 6.533-22.786 16.519-44.395 29.887-64 32.903-48.256 79.547-84.849 134.97-103.92 24.382-8.3894 49.585-11.796 75-14.795 5.6777-0.66992 11.507-0.93822 17.404-0.88672zm-117.4 154.6c-7.4846 11.326-15.986 21.538-21.691 34-17.122 37.394-17.312 81.775-2.8848 120 6.1573 16.313 17.825 27.979 25.576 43-54.018-22.162-96.515-61.531-144-94 10.037-13.955 27.636-25.265 41-36 30.589-24.57 64.64-53.404 102-67zm230 1c37.462 21.886 72.16 44.668 106 72 7.8806 6.365 15.477 13.058 23 19.832 2.4991 2.2503 7.793 5.3296 7.793 9.168 0 3.4719-4.4241 6.2756-6.793 8.1953-7.8049 6.3254-16.072 12.063-24 18.23-33.447 26.018-70.684 52.205-110 68.574 6.8854-10.411 14.99-19.724 20.629-31 18.022-36.039 20.2-76.682 8.9453-115-3.4954-11.9-9.1666-23.623-15.92-34-2.8718-4.4128-9.8283-10.713-9.6543-16z"
        style="display:none;fill:#13889b"
      />
      <path
        d="m314.32 165.39c35.937-4.508 42.559 52.672 7 56.536-37.225 4.045-43.745-51.927-7-56.536"
        style="fill:#ffffff"
      />
    </g>
    <g>
      <path
        d="m351.32 314.1c-9.4101 4.8079-15.129 17.972-20.605 26.717-12.286 19.621-25.102 38.816-36.851 58.777-19.21 32.637-43.286 67.626-50.181 105.53-3.0593 16.818-2.6544 34.174 1.61 50.762 3.3843 13.165 9.5104 26.552 17.727 37.404 59.458 78.53 194.03 34.103 195.16-64.121 0.41892-36.411-18.914-69.238-35.755-100.19-21.495-39.505-45.986-77.614-71.108-114.88"
        style="display:none;fill:#ffffff;paint-order:markers stroke fill"
      />
      <path
        d="m351.32 367.1c-7.0443 3.5991-11.325 13.453-15.424 20-9.197 14.688-18.791 29.057-27.586 44-14.381 24.432-32.403 50.624-37.565 79-2.2901 12.59-1.9871 25.582 1.2053 38 2.5335 9.8551 7.1194 19.876 13.27 28 44.51 58.787 145.25 25.529 146.1-48 0.3136-27.257-14.159-51.831-26.765-75-16.091-29.573-34.425-58.101-53.231-86"
        style="fill:#17a2b8;paint-order:markers stroke fill"
      />
      <path
        d="m376.32 473.53c11.75-2.1343 16.145 13.385 19.575 21.566 8.1287 19.386 11.034 40.258-0.38733 59-3.9369 6.4604-8.9137 14.177-17.188 14.891-7.0682 0.60986-13.119-3.3652-12.938-10.891 0.25018-10.369 13.023-16.076 14.637-27 2.493-16.879-8.7316-29.371-11.37-45-0.97815-5.7952 1.4025-11.427 7.6713-12.566z"
        style="fill:#ffffff"
      />
    </g>
  </g>
</svg>